PathFileType  4	(X/Y/Z) C:\Users\antoi\Documents\MyRepositories\mobilecap\ResultsAnalysis
DataRate	CameraRate	NumFrames	NumMarkers	Units	OrigDataRate	OrigDataStartFrame	OrigNumFrames
100.0	100.0	4	51	mm	100.0	1	259
Frame#	Time	r_knee			r_shank_antsup			r_ankle			r_calc			r_5meta			r_toe			L_knee			L_shank_antsup			L_ankle			L_calc			L_5meta			L_toe			r_sh2			r_sh3			r_sh4			L_sh2			L_sh3			r_thigh1			r_thigh2			r_thigh3			r_thigh4			r_thigh5			L_thigh1			L_thigh2			L_thigh3			L_thigh4			r.ASIS			r.PSIS			L.ASIS			L.PSIS			C7			R_Shoulder			L_Shoulder			R_Sternum			L_Sternum			R_humerus			R_elbow_med			R_elbow_lat			R_forearm			R_wrist_radius			R_wrist_ulna			L_humerus			L_elbow_med			L_elbow_lat			L_forearm			L_wrist_radius			L_wrist_ulna			R_HJC			L_HJC			R_HJC_reg			L_HJC_reg			
		X1	Y1	Z1	X2	Y2	Z2	X3	Y3	Z3	X4	Y4	Z4	X5	Y5	Z5	X6	Y6	Z6	X7	Y7	Z7	X8	Y8	Z8	X9	Y9	Z9	X10	Y10	Z10	X11	Y11	Z11	X12	Y12	Z12	X13	Y13	Z13	X14	Y14	Z14	X15	Y15	Z15	X16	Y16	Z16	X17	Y17	Z17	X18	Y18	Z18	X19	Y19	Z19	X20	Y20	Z20	X21	Y21	Z21	X22	Y22	Z22	X23	Y23	Z23	X24	Y24	Z24	X25	Y25	Z25	X26	Y26	Z26	X27	Y27	Z27	X28	Y28	Z28	X29	Y29	Z29	X30	Y30	Z30	X31	Y31	Z31	X32	Y32	Z32	X33	Y33	Z33	X34	Y34	Z34	X35	Y35	Z35	X36	Y36	Z36	X37	Y37	Z37	X38	Y38	Z38	X39	Y39	Z39	X40	Y40	Z40	X41	Y41	Z41	X42	Y42	Z42	X43	Y43	Z43	X44	Y44	Z44	X45	Y45	Z45	X46	Y46	Z46	X47	Y47	Z47	X48	Y48	Z48	X49	Y49	Z49	X50	Y50	Z50	X51	Y51	Z51	

1	0.00000000	-1135.90198	853.15352	-413.04214	-1116.90235	726.63167	-423.81917	-1245.75516	407.74740	-429.82655	-1311.99979	374.96402	-480.59745	-1119.16814	342.25892	-381.09389	-1076.68374	364.83592	-454.26241	-1155.13213	844.56844	-746.02589	-1122.47805	732.46814	-730.98414	-1256.09707	406.49878	-730.29621	-1317.02454	378.08698	-681.01367	-1117.04749	344.24631	-769.10176	-1081.42163	366.80116	-701.45830	-1131.34793	613.22552	-445.31790	-1179.48475	724.77727	-375.11948	-1184.61252	607.34330	-379.97006	-1203.15556	745.59424	-770.62441	-1200.03142	624.69821	-785.69890	-1026.23082	1081.95237	-431.61195	-1034.93060	971.26244	-445.82126	-1061.20026	943.64244	-390.11064	-1108.41184	1076.57930	-350.45986	-1113.59248	960.83247	-374.33752	-1070.85406	1095.84459	-766.51184	-1066.15619	958.68777	-753.90944	-1182.66803	1088.20974	-793.71880	-1175.99599	950.62793	-773.03650	-1047.55069	1351.51250	-432.28598	-1253.36533	1407.51580	-508.28387	-1059.27385	1342.00599	-699.40921	-1259.43618	1402.66009	-611.29363	-1153.21294	1899.62300	-564.68329	-1097.13875	1824.76495	-380.13572	-1092.42349	1841.91949	-740.90883	-1026.59143	1805.77707	-541.13029	-1026.63767	1800.85871	-586.40063	-1105.33606	1658.72742	-305.84696	-1214.75226	1447.71915	-329.06601	-1180.42603	1470.78874	-258.26747	-1082.84121	1323.94455	-258.84673	-1045.44058	1207.32014	-251.61977	-1073.39629	1197.30172	-222.28959	-1116.31602	1672.37089	-828.56616	-1221.93476	1472.34367	-788.07156	-1193.92149	1487.44481	-864.03988	-1092.99416	1350.90602	-852.85316	-1060.65802	1238.31562	-878.19370	-1095.93040	1233.41440	-908.95550	-1140.76385	1280.90721	-462.43085	-1148.78083	1262.30032	-674.85874	-1131.63452	1281.34145	-462.29081	-1142.01184	1273.04124	-638.37262	
2	0.01000000	-1136.40729	853.10980	-412.75950	-1117.35656	726.51639	-423.73687	-1245.78269	407.68101	-429.76633	-1312.08301	374.88947	-480.55104	-1119.13041	342.24198	-381.07106	-1076.74428	364.83717	-454.24009	-1154.23164	844.36334	-746.26102	-1121.61655	732.16165	-730.90118	-1256.04929	406.49284	-730.30194	-1316.98076	378.11650	-680.90852	-1117.03281	344.25839	-769.09871	-1081.39747	366.81930	-701.46445	-1131.66451	613.85077	-445.48181	-1179.74486	724.70596	-375.18936	-1184.93263	607.25359	-379.79109	-1202.31414	745.45373	-770.69126	-1199.43769	624.61940	-785.75930	-1027.31180	1081.86509	-431.46401	-1035.62617	971.36302	-445.40282	-1062.04079	943.65294	-389.98506	-1109.37187	1076.59285	-350.49795	-1114.39594	960.57080	-374.29459	-1072.58494	1096.13640	-765.86835	-1065.91098	958.72331	-753.59028	-1182.96536	1087.62888	-793.58972	-1175.70528	950.22696	-773.19075	-1048.74497	1351.13264	-432.30656	-1253.91227	1408.28686	-508.50150	-1060.44747	1341.32455	-698.84376	-1260.22692	1403.41924	-610.86418	-1149.78519	1899.57543	-564.95857	-1094.26608	1824.59533	-380.25695	-1089.41155	1841.57646	-741.19145	-1023.77305	1804.53391	-541.81094	-1023.85106	1800.00775	-586.84962	-1103.78010	1658.81117	-305.66970	-1214.61676	1448.79565	-328.67560	-1180.49866	1471.57034	-257.68395	-1084.06855	1324.06157	-258.28309	-1047.33075	1207.22332	-250.62174	-1075.53299	1197.32985	-221.40038	-1114.64779	1672.54283	-829.02271	-1222.13506	1473.48662	-788.61500	-1194.01744	1488.37359	-864.58559	-1093.60840	1351.36135	-853.31209	-1061.52261	1238.76460	-878.83872	-1096.72919	1234.02136	-909.45491	-1142.32526	1281.08219	-462.10000	-1150.43722	1262.21518	-674.50131	-1132.93714	1281.57183	-461.97635	-1143.77528	1273.21798	-637.64697	
3	0.02000000	-1136.87653	853.10002	-412.52087	-1117.67741	726.52489	-423.59898	-1245.82775	407.62023	-429.69222	-1312.08063	374.90579	-480.50552	-1119.12064	342.22973	-381.06602	-1076.76660	364.82470	-454.21378	-1153.36623	844.10985	-746.44880	-1120.84790	731.96363	-730.80680	-1255.97580	406.49973	-730.28967	-1316.95207	378.14440	-680.87875	-1117.02557	344.26271	-769.09723	-1081.39389	366.82726	-701.47106	-1131.93696	614.04005	-445.46471	-1179.93595	724.64840	-375.14416	-1185.24323	607.09574	-379.62579	-1201.51548	745.27106	-770.61319	-1198.71249	624.43101	-785.56805	-1028.48731	1081.93267	-431.38231	-1036.36320	971.35694	-445.06596	-1062.91424	943.68769	-389.79438	-1110.52270	1076.34493	-350.43811	-1115.24968	960.35444	-374.31222	-1073.60896	1096.26629	-765.45484	-1065.70016	958.71741	-753.36770	-1183.21265	1087.10818	-793.67334	-1175.34146	949.67449	-773.25371	-1049.86082	1350.74953	-432.22172	-1254.41054	1409.08323	-508.76083	-1061.62710	1340.59440	-698.40292	-1260.97798	1404.18585	-610.51882	-1146.24505	1899.52547	-565.18818	-1091.28681	1824.39888	-380.56339	-1086.29734	1841.28208	-741.40290	-1020.87787	1803.49027	-542.04645	-1020.91287	1799.16698	-586.76446	-1102.12955	1658.78955	-305.56583	-1214.28249	1450.03012	-328.44612	-1180.57309	1472.41418	-257.13562	-1085.26131	1324.21724	-257.57076	-1049.33907	1207.20695	-249.58896	-1077.76580	1197.37045	-220.64357	-1112.93081	1672.66683	-829.49523	-1222.48895	1474.70200	-789.40380	-1194.09215	1489.35429	-865.32003	-1094.25346	1351.81611	-853.72781	-1062.49332	1239.21713	-879.45876	-1097.56381	1234.34288	-909.75535	-1143.86414	1281.27551	-461.78485	-1152.08191	1262.10409	-674.15479	-1134.22470	1281.75124	-461.57242	-1145.54654	1273.30890	-636.98346	
4	0.03000000	-1137.33626	853.05212	-412.45898	-1117.92086	726.58190	-423.41827	-1245.88693	407.55726	-429.58602	-1312.05109	374.93720	-480.48329	-1119.13121	342.21818	-381.06241	-1076.78819	364.80504	-454.18854	-1152.56638	843.80901	-746.52355	-1120.15880	731.83695	-730.68330	-1255.89227	406.51814	-730.25365	-1316.93561	378.15379	-680.89788	-1117.02932	344.26647	-769.07823	-1081.40104	366.84029	-701.48735	-1132.16464	613.94659	-445.36240	-1180.14013	724.56998	-375.05852	-1185.52475	607.02234	-379.47949	-1200.76415	745.11061	-770.48537	-1198.01491	624.22291	-785.38829	-1029.71290	1082.12946	-431.31362	-1037.42391	971.22589	-444.99025	-1063.81333	943.73856	-389.50539	-1111.68460	1076.13475	-350.28099	-1116.21483	960.27066	-374.16982	-1074.10399	1096.28969	-765.25092	-1065.53871	958.67427	-753.20896	-1183.54268	1086.51284	-793.85631	-1174.96443	949.01804	-773.28823	-1050.95911	1350.31373	-432.15839	-1254.97550	1409.94351	-508.91272	-1062.78234	1339.87008	-698.30505	-1261.68329	1404.99121	-610.52169	-1142.63946	1899.47327	-565.40931	-1088.17138	1824.13492	-380.90008	-1083.03828	1840.96507	-741.48591	-1017.88017	1802.47443	-542.12848	-1018.02142	1798.09600	-586.83055	-1100.42303	1658.70537	-305.54951	-1214.21358	1451.19082	-328.14760	-1180.66880	1473.28558	-256.66643	-1086.48935	1324.39628	-256.68884	-1051.57719	1207.10827	-248.56368	-1080.13832	1197.43855	-219.80464	-1111.16064	1672.74581	-829.99751	-1222.94590	1475.91899	-790.41265	-1194.14659	1490.32451	-866.21727	-1095.03654	1352.17703	-854.17709	-1063.52259	1239.55532	-879.97674	-1098.44392	1234.59638	-910.20315	-1145.42757	1281.45649	-461.64712	-1153.75460	1262.04229	-673.99084	-1135.67631	1281.84719	-461.34454	-1147.25369	1273.29986	-636.72018	
